<svg id="Layer_1" data-name="Layer 1" xmlns="http://www.w3.org/2000/svg" viewBox="0 0 53.24 78.28"><title>location-icon</title><path d="M53.24,27.58c-.06,4.13-1.39,8-2.94,11.75-5.14,12.45-22.4,39.9-23.76,39.9S8.6,52.9,2.77,39c-3.17-7.54-4-15.16-.37-22.76C6.62,7.54,13.47.94,27.2.94,45,.94,53.43,15.3,53.24,27.58Zm-26.7,45s13.92-20.66,19-32.12a42.58,42.58,0,0,0,3.54-11C51,14.78,39.72,5,27.2,5,9.35,5,0,20.78,5.59,35.26,10.88,48.89,18.58,60.16,26.53,72.59Z" transform="translate(0 -0.94)" fill="#003a5c"/><path d="M26.62,41.89A14.72,14.72,0,1,1,41.4,27.16,14.78,14.78,0,0,1,26.62,41.89Zm0-25.5A10.81,10.81,0,0,0,15.8,27.06a10.81,10.81,0,1,0,21.62,0A10.8,10.8,0,0,0,26.63,16.38Z" transform="translate(0 -0.94)" fill="#003a5c"/><path d="M26.63,16.38A10.8,10.8,0,0,1,37.43,27.09,10.81,10.81,0,1,1,26.63,16.38Z" transform="translate(0 -0.94)" fill="#22ACE0"/></svg>